<?xml version="1.0" encoding="UTF-8"?>
<svg xmlns="http://www.w3.org/2000/svg" id="Outline" viewBox="0 0 24 24">
  <path d="m23.433,4.915c-.477-.582-1.182-.915-1.934-.915H4.49l-.256-1.843c-.17-1.229-1.234-2.157-2.476-2.157H.5C.224,0,0,.224,0,.5s.224.5.5.5h1.259c.745,0,1.383.556,1.485,1.294l1.781,12.825c.308,2.212,2.225,3.881,4.457,3.881h10.018c.276,0,.5-.224.5-.5s-.224-.5-.5-.5h-10.018c-1.73,0-3.214-1.289-3.462-3h12.64c2.138,0,3.993-1.521,4.412-3.617l.879-4.393c.147-.738-.042-1.494-.519-2.075Zm-.462,1.879l-.879,4.393c-.326,1.63-1.77,2.813-3.432,2.813H5.879l-1.25-9h16.87c.451,0,.874.2,1.16.549.286.349.399.803.312,1.245Zm-15.971,13.206c-1.103,0-2,.897-2,2s.897,2,2,2,2-.897,2-2-.897-2-2-2Zm0,3c-.552,0-1-.449-1-1s.448-1,1-1,1,.449,1,1-.448,1-1,1Zm10-3c-1.103,0-2,.897-2,2s.897,2,2,2,2-.897,2-2-.897-2-2-2Zm0,3c-.552,0-1-.449-1-1s.448-1,1-1,1,.449,1,1-.448,1-1,1Z"/>
</svg>
